<svg width="20" height="20" viewBox="0 0 20 20" fill="none" xmlns="http://www.w3.org/2000/svg">
<path fill-rule="evenodd" clip-rule="evenodd" d="M9.99967 0.833313C4.93706 0.833313 0.833008 4.93737 0.833008 9.99998C0.833008 15.0626 4.93706 19.1666 9.99967 19.1666C15.0623 19.1666 19.1663 15.0626 19.1663 9.99998C19.1663 4.93737 15.0623 0.833313 9.99967 0.833313ZM14.3389 8.08924C14.6644 7.7638 14.6644 7.23616 14.3389 6.91072C14.0135 6.58529 13.4859 6.58529 13.1604 6.91072L8.74967 11.3215L6.83893 9.41072C6.51349 9.08529 5.98586 9.08529 5.66042 9.41072C5.33498 9.73616 5.33498 10.2638 5.66042 10.5892L8.16042 13.0892C8.48586 13.4147 9.01349 13.4147 9.33893 13.0892L14.3389 8.08924Z" fill="#16B364"/>
</svg>
