<svg xmlns="http://www.w3.org/2000/svg" version="1.1" xmlnsXlink="http://www.w3.org/1999/xlink"
    xmlnsSvgjs="http://svgjs.dev/svgjs" width="100" height="50" viewBox="0 0 1500 503">
    <g transform="matrix(1,0,0,1,-0.908648575295615,-0.6704006471787807)">
        <svg viewBox="0 0 396 133" data-background-color="#ffffff"
            preserveAspectRatio="xMidYMid meet" height="503" width="1500"
            xmlns="http://www.w3.org/2000/svg" xmlnsXlink="http://www.w3.org/1999/xlink">
            <g id="tight-bounds" transform="matrix(1,0,0,1,0.23988322387805283,0.1772629941844457)">
                <svg viewBox="0 0 395.52 132.64524045938717" height="132.64524045938717"
                    width="395.52">
                    <g>
                        <svg viewBox="0 0 670.7132897138946 224.93660394772996"
                            height="132.64524045938717" width="395.52">
                            <g transform="matrix(1,0,0,1,0,59.247426317122425)">
                                <svg viewBox="0 0 395.52 106.44175131348511"
                                    height="106.44175131348511" width="395.52">
                                    <g id="textblocktransform">
                                        <svg viewBox="0 0 395.52 106.44175131348511"
                                            height="106.44175131348511" width="395.52"
                                            id="textblock">
                                            <g>
                                                <svg viewBox="0 0 395.52 106.44175131348511"
                                                    height="106.44175131348511" width="395.52">
                                                    <g transform="matrix(1,0,0,1,0,0)">
                                                        <svg width="395.52"
                                                            viewBox="3.52 -44.58 166.10999999999999 45.019999999999996"
                                                            height="106.44175131348511"
                                                            data-palette-color="#d7dbde">
                                                            <g class="wordmark-text-0"
                                                                data-fill-palette-color="primary"
                                                                id="text-0">
                                                                <path
                                                                    d="M8.57 0L3.52 0 3.52-42.97 12.52-42.97Q15.94-42.97 17.58-41.76 19.21-40.55 19.71-38.12 20.21-35.69 20.21-32.01L20.21-32.01Q20.21-28.03 19.41-25.68 18.6-23.34 16.28-22.66L16.28-22.66Q17.46-22.46 18.23-21.66 18.99-20.85 19.43-19.14 19.87-17.43 20.06-14.56 20.24-11.69 20.24-7.35L20.24-7.35Q20.24-6.93 20.24-6.15 20.24-5.37 20.26-4.44 20.29-3.52 20.32-2.61 20.36-1.71 20.43-1.01 20.51-0.32 20.63 0L20.63 0 15.6 0Q15.5-0.22 15.43-0.98 15.36-1.73 15.31-2.98 15.26-4.22 15.23-5.94 15.21-7.67 15.21-9.8 15.21-11.94 15.21-14.48L15.21-14.48Q15.21-16.92 15-18.2 14.79-19.48 14.03-19.98 13.26-20.48 11.57-20.58L11.57-20.58 8.57-20.75 8.57 0ZM8.57-38.96L8.57-24.46 11.79-24.46Q13.18-24.46 13.93-25.01 14.67-25.56 14.94-27.21 15.21-28.86 15.21-32.15L15.21-32.15 15.21-32.45Q15.21-35.18 14.95-36.58 14.7-37.99 13.96-38.48 13.23-38.96 11.74-38.96L11.74-38.96 8.57-38.96ZM34.01 0.44L34.01 0.44Q31.37 0.44 29.77-0.48 28.17-1.39 27.34-3.08 26.51-4.76 26.23-7.12 25.95-9.47 25.95-12.33L25.95-12.33 25.95-25.27Q25.95-27.86 26.32-30.02 26.68-32.18 27.59-33.75 28.49-35.33 30.1-36.19 31.71-37.06 34.2-37.06L34.2-37.06Q36.72-37.06 38.25-36.18 39.79-35.3 40.59-33.7 41.38-32.1 41.65-29.9 41.92-27.69 41.92-25.05L41.92-25.05 41.92-18.14 30.98-18.14 30.98-10.84Q30.98-7.37 31.46-5.55 31.93-3.74 34.06-3.74L34.06-3.74Q35.45-3.74 36.04-4.6 36.64-5.47 36.78-7.04 36.91-8.62 36.91-10.77L36.91-10.77 36.91-13.72 41.82-13.72 41.82-12.16Q41.82-9.3 41.59-6.98 41.35-4.66 40.6-3 39.84-1.34 38.27-0.45 36.69 0.44 34.01 0.44ZM30.95-26.03L30.95-21.53 36.91-21.53 36.91-26.2Q36.91-28.39 36.77-29.9 36.62-31.4 36.06-32.17 35.5-32.93 34.2-32.93L34.2-32.93Q32.76-32.93 32.07-32.06 31.37-31.18 31.16-29.63 30.95-28.08 30.95-26.03L30.95-26.03ZM52.92 0L47.92 0 47.92-36.62 52.92-36.62 52.92-32.74Q53.41-34.45 55.01-35.77 56.61-37.08 58.83-37.08L58.83-37.08Q61.59-37.08 63.13-35.13 64.67-33.18 64.67-29.2L64.67-29.2 64.67 0 59.66 0 59.66-29.17Q59.66-31.13 58.78-32.01 57.91-32.89 56.54-32.89L56.54-32.89Q55.54-32.89 54.71-32.45 53.88-32.01 53.4-31.08 52.92-30.15 52.92-28.69L52.92-28.69 52.92 0ZM81.46 0.22L78.02 0.22Q75.68 0.22 74.48-0.34 73.28-0.9 72.87-2.15 72.45-3.39 72.45-5.44L72.45-5.44 72.45-32.62 69.11-32.62 69.11-36.33 72.45-36.33 72.45-42.97 77.46-42.97 77.46-36.33 81.41-36.33 81.41-32.62 77.46-32.62 77.46-5.88Q77.46-4.96 77.7-4.5 77.95-4.05 78.8-3.91 79.66-3.76 81.46-3.76L81.46-3.76 81.46 0.22Z"
                                                                    fill="#d7dbde"
                                                                    data-fill-palette-color="primary"></path>
                                                                <path
                                                                    d="M107.14 0.32L107.14 0.32Q105.65 0.32 104.3-0.45 102.94-1.22 102.16-3.08L102.16-3.08 102.16 0 97.16 0 97.16-43.43 102.16-43.43 102.16-33.72Q102.58-35.28 103.96-36.17 105.33-37.06 106.82-37.06L106.82-37.06Q109.56-37.06 110.97-35.52 112.39-33.98 112.92-31.34 113.44-28.69 113.44-25.39L113.44-25.39 113.44-11.3Q113.44-8.01 112.94-5.37 112.44-2.73 111.08-1.21 109.73 0.32 107.14 0.32ZM105.48-3.76L105.48-3.76Q107.31-3.78 107.86-5.59 108.41-7.4 108.41-11.3L108.41-11.3 108.41-26.05Q108.41-28.1 108.24-29.63 108.07-31.15 107.47-32.01 106.87-32.86 105.58-32.86L105.58-32.86Q104.48-32.86 103.72-32.36 102.97-31.86 102.56-30.4 102.16-28.93 102.16-26.03L102.16-26.03 102.16-11.18Q102.16-7.47 102.78-5.62 103.41-3.76 105.48-3.76ZM125.13 0L120.1 0 120.1-36.62 125.13-36.62 125.13 0ZM125.13-39.99L120.1-39.99 120.1-44.58 125.13-44.58 125.13-39.99ZM137.41 0L132.4 0 132.4-43.43 137.41-43.43 137.41-19.21 144.61-36.62 149.67-36.62 141.95-18.53 150.08 0 144.93 0 137.41-17.82 137.41 0ZM161.72 0.44L161.72 0.44Q159.09 0.44 157.49-0.48 155.89-1.39 155.06-3.08 154.23-4.76 153.95-7.12 153.67-9.47 153.67-12.33L153.67-12.33 153.67-25.27Q153.67-27.86 154.03-30.02 154.4-32.18 155.3-33.75 156.21-35.33 157.82-36.19 159.43-37.06 161.92-37.06L161.92-37.06Q164.43-37.06 165.97-36.18 167.51-35.3 168.3-33.7 169.1-32.1 169.37-29.9 169.63-27.69 169.63-25.05L169.63-25.05 169.63-18.14 158.7-18.14 158.7-10.84Q158.7-7.37 159.17-5.55 159.65-3.74 161.77-3.74L161.77-3.74Q163.16-3.74 163.76-4.6 164.36-5.47 164.49-7.04 164.63-8.62 164.63-10.77L164.63-10.77 164.63-13.72 169.54-13.72 169.54-12.16Q169.54-9.3 169.3-6.98 169.07-4.66 168.32-3 167.56-1.34 165.98-0.45 164.41 0.44 161.72 0.44ZM158.67-26.03L158.67-21.53 164.63-21.53 164.63-26.2Q164.63-28.39 164.48-29.9 164.34-31.4 163.77-32.17 163.21-32.93 161.92-32.93L161.92-32.93Q160.48-32.93 159.78-32.06 159.09-31.18 158.88-29.63 158.67-28.08 158.67-26.03L158.67-26.03Z"
                                                                    fill="#373744"
                                                                    data-fill-palette-color="accent"></path>
                                                            </g>
                                                        </svg>
                                                    </g>
                                                </svg>
                                            </g>
                                        </svg>
                                    </g>
                                </svg>
                            </g>
                            <g transform="matrix(1,0,0,1,445.77668576616463,0)">
                                <svg viewBox="0 0 224.93660394772996 224.93660394772996"
                                    height="224.93660394772996" width="224.93660394772996">
                                    <g>
                                        <svg></svg>
                                    </g>
                                    <g id="icon-0">
                                        <svg viewBox="0 0 224.93660394772996 224.93660394772996"
                                            height="224.93660394772996" width="224.93660394772996">
                                            <g>
                                                <path
                                                    d="M0 112.468c0-62.115 50.354-112.468 112.468-112.468 62.115 0 112.468 50.354 112.469 112.468 0 62.115-50.354 112.468-112.469 112.469-62.115 0-112.468-50.354-112.468-112.469zM112.468 215.338c56.813 0 102.869-46.056 102.87-102.87 0-56.813-46.056-102.869-102.87-102.869-56.813 0-102.869 46.056-102.869 102.869 0 56.813 46.056 102.869 102.869 102.87z"
                                                    data-fill-palette-color="accent" fill="#373744"
                                                    stroke="transparent"></path>
                                            </g>
                                            <g
                                                transform="matrix(1,0,0,1,49.581018106812515,75.01523379141821)">
                                                <svg
                                                    viewBox="0 0 125.77456773410493 74.90613636489354"
                                                    height="74.90613636489354"
                                                    width="125.77456773410493">
                                                    <g>
                                                        <svg xmlns="http://www.w3.org/2000/svg"
                                                            xmlnsXlink="http://www.w3.org/1999/xlink"
                                                            version="1.1" x="0" y="0"
                                                            viewBox="4.916 23.148664348452584 90.168 53.70033565154742"
                                                            enable-background="new 0 0 100 100"
                                                            xml:space="preserve"
                                                            height="74.90613636489354"
                                                            width="125.77456773410493"
                                                            class="icon-dxe-0"
                                                            data-fill-palette-color="accent"
                                                            id="dxe-0"><path d="M77.332 41.346C76.413 41.346 75.518 41.438 74.637 41.573L71.386 26.241C71.377 26.199 71.351 26.168 71.337 26.128A1 1 0 0 0 71.257 25.944 1 1 0 0 0 71.139 25.791 1 1 0 0 0 71.009 25.665 1 1 0 0 0 70.823 25.558C70.788 25.542 70.762 25.514 70.724 25.502L63.818 23.205A0.998 0.998 0 1 0 63.189 25.099L69.552 27.215 70.667 32.476H36.725L36.018 28.89A1 1 0 0 0 35.902 28.609H42.547A0.998 0.998 0 0 0 42.547 26.613H29.179A0.998 0.998 0 0 0 29.179 28.609H34.175A0.98 0.98 0 0 0 34.059 29.276L34.857 33.323 29.873 42.898A17.6 17.6 0 0 0 22.667 41.347C12.879 41.347 4.916 49.31 4.916 59.098S12.879 76.849 22.667 76.849C30.033 76.849 36.325 72.322 39 65.915L39.417 66.057C39.423 66.059 39.429 66.058 39.436 66.06A4.9 4.9 0 0 0 41.449 66.503 4.91 4.91 0 0 0 46.353 61.6C46.353 60.864 46.179 60.173 45.887 59.546L72.253 39.952 72.684 41.984C65.147 44.035 59.582 50.919 59.582 59.096 59.582 68.885 67.545 76.847 77.333 76.847S95.084 68.884 95.084 59.096C95.083 49.308 87.12 41.346 77.332 41.346M35.476 36.459L38.294 50.754A17.84 17.84 0 0 0 31.647 43.814zM42.122 59.855L41.902 58.737C42.317 58.803 42.704 58.949 43.042 59.171zM36.789 63.052L26.768 59.638 37.329 58.959A4.87 4.87 0 0 0 36.544 61.6C36.545 62.109 36.645 62.59 36.789 63.052M24.371 57.792L30.725 45.586C34.721 47.982 37.57 52.091 38.245 56.899zM22.668 74.851C13.981 74.851 6.913 67.783 6.913 59.096S13.98 43.341 22.668 43.341C24.904 43.341 27.027 43.819 28.954 44.663L21.952 58.115A0.99 0.99 0 0 0 21.764 60.04L37.114 65.27C34.708 70.891 29.158 74.851 22.668 74.851M44.356 61.6A2.91 2.91 0 0 1 41.449 64.507 2.91 2.91 0 0 1 38.541 61.6C38.541 60.549 39.106 59.636 39.944 59.125L40.47 61.793C40.472 61.801 40.477 61.807 40.478 61.814 40.487 61.855 40.509 61.891 40.523 61.93 40.552 62.011 40.583 62.089 40.63 62.157 40.638 62.169 40.639 62.183 40.648 62.195 40.663 62.215 40.687 62.223 40.704 62.241A1 1 0 0 0 40.954 62.449C40.988 62.469 41.018 62.49 41.053 62.505A1 1 0 0 0 41.449 62.597H41.454C41.516 62.597 41.579 62.591 41.643 62.579 41.66 62.576 41.672 62.564 41.689 62.56A1 1 0 0 0 41.938 62.457C41.966 62.441 41.998 62.431 42.024 62.413 42.031 62.408 42.039 62.407 42.046 62.402L44.226 60.782C44.302 61.042 44.356 61.313 44.356 61.6M44.689 57.948A4.86 4.86 0 0 0 41.5 56.701L37.118 34.471H71.09L71.797 37.803zM77.332 74.851C68.645 74.851 61.577 67.783 61.577 59.096 61.577 51.878 66.463 45.793 73.097 43.936L76.355 59.302A1 1 0 0 0 78.309 58.89L75.051 43.527A16 16 0 0 1 77.332 43.343C86.019 43.343 93.087 50.41 93.087 59.098S86.019 74.851 77.332 74.851" fill="#373744" data-fill-palette-color="accent"></path></svg>
                                                    </g>
                                                </svg>
                                            </g>
                                        </svg>
                                    </g>
                                </svg>
                            </g>
                        </svg>
                    </g>
                    <defs></defs>
                </svg>
                <rect width="395.52" height="132.64524045938717" fill="none" stroke="none"
                    visibility="hidden"></rect>
            </g>
        </svg>
    </g>
</svg>